<svg xmlns="http://www.w3.org/2000/svg" xmlns:xlink="http://www.w3.org/1999/xlink" contentStyleType="text/css" data-diagram-type="DESCRIPTION" height="759px" preserveAspectRatio="none" style="width:2337px;height:759px;background:#FFFFFF;" version="1.1" viewBox="0 0 2337 759" width="2337px" zoomAndPan="magnify"><?plantuml 1.2026.4?><defs/><g><g class="title" data-source-line="2"><text fill="#000000" font-family="sans-serif" font-size="14" font-weight="700" lengthAdjust="spacing" textLength="439.291" x="945.3545" y="22.9951">SCFCA PoC &#8212; Implementation Architecture (High Level)</text></g><!--cluster user_env--><g class="cluster" data-qualified-name="user_env" data-source-line="9" id="ent0002"><rect fill="none" height="97.3" rx="2.5" ry="2.5" style="stroke:#181818;stroke-width:1;" width="164" x="1699" y="47.4469"/><text fill="#000000" font-family="sans-serif" font-size="14" font-weight="700" lengthAdjust="spacing" textLength="141.6611" x="1710.1694" y="62.442">User Environment</text></g><!--cluster app--><g class="cluster" data-qualified-name="app" data-source-line="13" id="ent0004"><rect fill="none" height="530.37" rx="2.5" ry="2.5" style="stroke:#181818;stroke-width:1;" width="883" x="1440" y="214.8969"/><text fill="#000000" font-family="sans-serif" font-size="14" font-weight="700" lengthAdjust="spacing" textLength="137.1221" x="1812.939" y="229.892">Application (PoC)</text></g><!--cluster secfun--><g class="cluster" data-qualified-name="app.secfun" data-source-line="20" id="ent0008"><rect fill="none" height="87.3" rx="2.5" ry="2.5" style="stroke:#181818;stroke-width:1;" width="709" x="1590" y="501.0769"/><text fill="#000000" font-family="sans-serif" font-size="14" font-weight="700" lengthAdjust="spacing" textLength="220.8213" x="1834.0894" y="516.072">Security-sensitive functions</text></g><!--cluster ci--><g class="cluster" data-qualified-name="ci" data-source-line="26" id="ent0011"><rect fill="none" height="423.78" rx="2.5" ry="2.5" style="stroke:#181818;stroke-width:1;" width="1109" x="7" y="44.2969"/><text fill="#000000" font-family="sans-serif" font-size="14" font-weight="700" lengthAdjust="spacing" textLength="204.7842" x="459.1079" y="59.292">DevSecOps (GitLab CI/CD)</text></g><!--cluster scanners--><g class="cluster" data-qualified-name="ci.scanners" data-source-line="29" id="ent0013"><rect fill="none" height="103.59" rx="2.5" ry="2.5" style="stroke:#181818;stroke-width:1;" width="1061" x="31" y="214.8969"/><text fill="#000000" font-family="sans-serif" font-size="14" font-weight="700" lengthAdjust="spacing" textLength="213.1514" x="454.9243" y="229.892">Security visibility scanners</text></g><!--entity browser--><g class="entity" data-qualified-name="user_env.browser" data-source-line="10" id="ent0003"><polygon fill="#F1F1F1" points="1714.58,92.4469,1724.58,82.4469,1847.412,82.4469,1847.412,118.7437,1837.412,128.7437,1714.58,128.7437,1714.58,92.4469" style="stroke:#181818;stroke-width:0.5;stroke-linejoin:miter;stroke-miterlimit:10;"/><line style="stroke:#181818;stroke-width:0.5;" x1="1837.412" x2="1847.412" y1="92.4469" y2="82.4469"/><line style="stroke:#181818;stroke-width:0.5;" x1="1714.58" x2="1837.412" y1="92.4469" y2="92.4469"/><line style="stroke:#181818;stroke-width:0.5;" x1="1837.412" x2="1837.412" y1="92.4469" y2="128.7437"/><text fill="#000000" font-family="sans-serif" font-size="14" lengthAdjust="spacing" textLength="92.832" x="1729.58" y="115.442">Web Browser</text></g><!--entity fe--><g class="entity" data-qualified-name="app.fe" data-source-line="14" id="ent0005"><rect fill="#F1F1F1" height="52.5938" rx="2.5" ry="2.5" style="stroke:#181818;stroke-width:0.5;" width="159.9521" x="1701.02" y="249.8969"/><text fill="#000000" font-family="sans-serif" font-size="14" lengthAdjust="spacing" textLength="139.9521" x="1711.02" y="272.892">React/Vite Frontend</text><text fill="#000000" font-family="sans-serif" font-size="14" lengthAdjust="spacing" textLength="25.2998" x="1711.02" y="289.1889">(UI)</text></g><!--entity be--><g class="entity" data-qualified-name="app.be" data-source-line="16" id="ent0006"><rect fill="#F1F1F1" height="52.5938" rx="2.5" ry="2.5" style="stroke:#181818;stroke-width:0.5;" width="169.4609" x="1696.27" y="390.4869"/><text fill="#000000" font-family="sans-serif" font-size="14" lengthAdjust="spacing" textLength="116.375" x="1706.27" y="413.482">FastAPI Backend</text><text fill="#000000" font-family="sans-serif" font-size="14" lengthAdjust="spacing" textLength="149.4609" x="1706.27" y="429.7789">(API + RBAC + CSRF)</text></g><!--entity db--><g class="entity" data-qualified-name="app.db" data-source-line="18" id="ent0007"><path d="M1615.63,661.3769 C1615.63,651.3769 1780.9972,651.3769 1780.9972,651.3769 C1780.9972,651.3769 1946.3644,651.3769 1946.3644,661.3769 L1946.3644,719.2675 C1946.3644,729.2675 1780.9972,729.2675 1780.9972,729.2675 C1780.9972,729.2675 1615.63,729.2675 1615.63,719.2675 L1615.63,661.3769" fill="#F1F1F1" style="stroke:#181818;stroke-width:0.5;"/><path d="M1615.63,661.3769 C1615.63,671.3769 1780.9972,671.3769 1780.9972,671.3769 C1780.9972,671.3769 1946.3644,671.3769 1946.3644,661.3769" fill="none" style="stroke:#181818;stroke-width:0.5;"/><text fill="#000000" font-family="sans-serif" font-size="14" lengthAdjust="spacing" textLength="80.7529" x="1625.63" y="688.372">PostgreSQL</text><text fill="#000000" font-family="sans-serif" font-size="14" lengthAdjust="spacing" textLength="310.7344" x="1625.63" y="704.6689">(users, cases, tickets, documents metadata,</text><text fill="#000000" font-family="sans-serif" font-size="14" lengthAdjust="spacing" textLength="177.6797" x="1625.63" y="720.9657">audit events, hash chain)</text></g><!--entity doc_hash--><g class="entity" data-qualified-name="app.secfun.doc_hash" data-source-line="21" id="ent0009"><rect fill="#F1F1F1" height="36.2969" rx="2.5" ry="2.5" style="stroke:#181818;stroke-width:0.5;" width="349.499" x="1606.25" y="536.0769"/><text fill="#000000" font-family="sans-serif" font-size="14" lengthAdjust="spacing" textLength="329.499" x="1616.25" y="559.072">Document metadata + SHA-256 hash handling</text></g><!--entity audit_verify--><g class="entity" data-qualified-name="app.secfun.audit_verify" data-source-line="22" id="ent0010"><rect fill="#F1F1F1" height="36.2969" rx="2.5" ry="2.5" style="stroke:#181818;stroke-width:0.5;" width="291.7012" x="1991.15" y="536.0769"/><text fill="#000000" font-family="sans-serif" font-size="14" lengthAdjust="spacing" textLength="271.7012" x="2001.15" y="559.072">Audit/report export + hash verification</text></g><!--entity pipeline--><g class="entity" data-qualified-name="ci.pipeline" data-source-line="27" id="ent0012"><rect fill="#F1F1F1" height="52.5938" rx="2.5" ry="2.5" style="stroke:#181818;stroke-width:0.5;" width="218.4951" x="435.75" y="79.2969"/><text fill="#000000" font-family="sans-serif" font-size="14" lengthAdjust="spacing" textLength="105.7041" x="445.75" y="102.292">Pipeline stages</text><text fill="#000000" font-family="sans-serif" font-size="14" lengthAdjust="spacing" textLength="198.4951" x="445.75" y="118.5889">(validate/test/build/security)</text></g><!--entity artifacts--><g class="entity" data-qualified-name="ci.artifacts" data-source-line="38" id="ent0020"><path d="M506.31,381.4869 L547.31,381.4869 A3.75,3.75 0 0 1 549.81,383.9869 L556.81,402.4869 L709.6801,402.4869 A2.5,2.5 0 0 1 712.1801,404.9869 L712.1801,449.5806 A2.5,2.5 0 0 1 709.6801,452.0806 L506.31,452.0806 A2.5,2.5 0 0 1 503.81,449.5806 L503.81,383.9869 A2.5,2.5 0 0 1 506.31,381.4869" fill="#F1F1F1" style="stroke:#181818;stroke-width:0.5;"/><line style="stroke:#181818;stroke-width:0.5;" x1="503.81" x2="556.81" y1="402.4869" y2="402.4869"/><text fill="#000000" font-family="sans-serif" font-size="14" lengthAdjust="spacing" textLength="154.9023" x="513.81" y="422.482">CI artifacts (evidence)</text><text fill="#000000" font-family="sans-serif" font-size="14" lengthAdjust="spacing" textLength="178.3701" x="513.81" y="438.7789">JSON / HTML / MD reports</text></g><!--entity sca--><g class="entity" data-qualified-name="ci.scanners.sca" data-source-line="30" id="ent0014"><rect fill="#F1F1F1" height="52.5938" rx="2.5" ry="2.5" style="stroke:#181818;stroke-width:0.5;" width="173.8223" x="47.09" y="249.8969"/><text fill="#000000" font-family="sans-serif" font-size="14" lengthAdjust="spacing" textLength="28.2393" x="57.09" y="272.892">SCA</text><text fill="#000000" font-family="sans-serif" font-size="14" lengthAdjust="spacing" textLength="153.8223" x="57.09" y="289.1889">(pip-audit, npm audit)</text></g><!--entity sast--><g class="entity" data-qualified-name="ci.scanners.sast" data-source-line="31" id="ent0015"><rect fill="#F1F1F1" height="52.5938" rx="2.5" ry="2.5" style="stroke:#181818;stroke-width:0.5;" width="148.4268" x="255.79" y="249.8969"/><text fill="#000000" font-family="sans-serif" font-size="14" lengthAdjust="spacing" textLength="35.9023" x="265.79" y="272.892">SAST</text><text fill="#000000" font-family="sans-serif" font-size="14" lengthAdjust="spacing" textLength="128.4268" x="265.79" y="289.1889">(Bandit, Semgrep)</text></g><!--entity secrets--><g class="entity" data-qualified-name="ci.scanners.secrets" data-source-line="32" id="ent0016"><rect fill="#F1F1F1" height="52.5938" rx="2.5" ry="2.5" style="stroke:#181818;stroke-width:0.5;" width="87.6348" x="439.18" y="249.8969"/><text fill="#000000" font-family="sans-serif" font-size="14" lengthAdjust="spacing" textLength="52.3496" x="449.18" y="272.892">Secrets</text><text fill="#000000" font-family="sans-serif" font-size="14" lengthAdjust="spacing" textLength="67.6348" x="449.18" y="289.1889">(Gitleaks)</text></g><!--entity iac--><g class="entity" data-qualified-name="ci.scanners.iac" data-source-line="33" id="ent0017"><rect fill="#F1F1F1" height="52.5938" rx="2.5" ry="2.5" style="stroke:#181818;stroke-width:0.5;" width="92.1191" x="561.94" y="249.8969"/><text fill="#000000" font-family="sans-serif" font-size="14" lengthAdjust="spacing" textLength="72.1191" x="571.94" y="272.892">IaC/Config</text><text fill="#000000" font-family="sans-serif" font-size="14" lengthAdjust="spacing" textLength="70.8408" x="571.94" y="289.1889">(Checkov)</text></g><!--entity trivy--><g class="entity" data-qualified-name="ci.scanners.trivy" data-source-line="34" id="ent0018"><rect fill="#F1F1F1" height="52.5938" rx="2.5" ry="2.5" style="stroke:#181818;stroke-width:0.5;" width="173.3643" x="689.32" y="249.8969"/><text fill="#000000" font-family="sans-serif" font-size="14" lengthAdjust="spacing" textLength="153.3643" x="699.32" y="272.892">Container image scan</text><text fill="#000000" font-family="sans-serif" font-size="14" lengthAdjust="spacing" textLength="45.6914" x="699.32" y="289.1889">(Trivy)</text></g><!--entity dast--><g class="entity" data-qualified-name="ci.scanners.dast" data-source-line="35" id="ent0019"><rect fill="#F1F1F1" height="52.5938" rx="2.5" ry="2.5" style="stroke:#181818;stroke-width:0.5;" width="177.8418" x="898.08" y="249.8969"/><text fill="#000000" font-family="sans-serif" font-size="14" lengthAdjust="spacing" textLength="37.7959" x="908.08" y="272.892">DAST</text><text fill="#000000" font-family="sans-serif" font-size="14" lengthAdjust="spacing" textLength="157.8418" x="908.08" y="289.1889">(OWASP ZAP baseline)</text></g><!--entity user--><g class="entity" data-qualified-name="user" data-source-line="7" id="ent0001"><ellipse cx="1405.9971" cy="67.7969" fill="#F1F1F1" rx="8" ry="8" style="stroke:#181818;stroke-width:0.5;"/><path d="M1405.9971,75.7969 L1405.9971,102.7969 M1392.9971,83.7969 L1418.9971,83.7969 M1405.9971,102.7969 L1392.9971,117.7969 M1405.9971,102.7969 L1418.9971,117.7969" fill="none" style="stroke:#181818;stroke-width:0.5;"/><text fill="#000000" font-family="sans-serif" font-size="14" lengthAdjust="spacing" textLength="149.4541" x="1331.27" y="132.292">Investigator / Analyst</text><text fill="#000000" font-family="sans-serif" font-size="14" lengthAdjust="spacing" textLength="42.834" x="1331.27" y="148.5889">(User)</text></g><g class="entity" data-qualified-name="GMN40" data-source-line="67" id="ent0041"><path d="M1131.97,389.0869 L1131.97,412.7869 L712.36,416.7869 L1131.97,420.7869 L1131.97,444.4853 A0,0 0 0 0 1131.97,444.4853 L1424.034,444.4853 A0,0 0 0 0 1424.034,444.4853 L1424.034,399.0869 L1414.034,389.0869 L1131.97,389.0869 A0,0 0 0 0 1131.97,389.0869" fill="#FEFFDD" style="stroke:#181818;stroke-width:0.5;"/><path d="M1414.034,389.0869 L1414.034,399.0869 L1424.034,399.0869 L1414.034,389.0869" fill="#FEFFDD" style="stroke:#181818;stroke-width:0.5;"/><text fill="#000000" font-family="sans-serif" font-size="13" lengthAdjust="spacing" textLength="271.064" x="1137.97" y="406.1538">Artifacts are produced by CI visibility jobs</text><text fill="#000000" font-family="sans-serif" font-size="13" lengthAdjust="spacing" textLength="214.9316" x="1137.97" y="421.2866">and retained for thesis evidence.</text><text fill="#000000" font-family="sans-serif" font-size="13" lengthAdjust="spacing" textLength="249.3994" x="1137.97" y="436.4194">They are not production certifications.</text></g><!--link browser to fe--><g class="link" data-entity-1="ent0003" data-entity-2="ent0005" data-link-type="dependency" data-source-line="41" id="lnk21"><path d="M1781,128.9869 C1781,160.2469 1781,211.8169 1781,244.6769" fill="none" id="browser-to-fe" style="stroke:#181818;stroke-width:1;"/><polygon fill="#181818" points="1781,249.6769,1785,240.6769,1781,244.6769,1777,240.6769,1781,249.6769" style="stroke:#181818;stroke-width:1;stroke-linejoin:miter;stroke-miterlimit:10;"/><text fill="#000000" font-family="sans-serif" font-size="13" lengthAdjust="spacing" textLength="80.8564" x="1782" y="194.9638">HTTP (5173)</text></g><!--link fe to be--><g class="link" data-entity-1="ent0005" data-entity-2="ent0006" data-link-type="dependency" data-source-line="42" id="lnk22"><path d="M1781,302.9369 C1781,327.8269 1781,360.3269 1781,385.1769" fill="none" id="fe-to-be" style="stroke:#181818;stroke-width:1;"/><polygon fill="#181818" points="1781,390.1769,1785,381.1769,1781,385.1769,1777,381.1769,1781,390.1769" style="stroke:#181818;stroke-width:1;stroke-linejoin:miter;stroke-miterlimit:10;"/><text fill="#000000" font-family="sans-serif" font-size="13" lengthAdjust="spacing" textLength="91.3809" x="1782" y="347.5538">REST API calls</text></g><!--link be to db--><g class="link" data-entity-1="ent0006" data-entity-2="ent0007" data-link-type="dependency" data-source-line="43" id="lnk23"><path d="M1696.02,430.0369 C1625.29,442.1869 1532.64,463.2869 1510,493.0769 C1482.22,529.6269 1483.32,559.0169 1510,596.3769 C1535.08,631.4869 1569.5403,651.8846 1610.4103,665.6146" fill="none" id="be-to-db" style="stroke:#181818;stroke-width:1;"/><polygon fill="#181818" points="1615.15,667.2069,1607.8924,660.549,1610.4103,665.6146,1605.3447,668.1325,1615.15,667.2069" style="stroke:#181818;stroke-width:1;stroke-linejoin:miter;stroke-miterlimit:10;"/><text fill="#000000" font-family="sans-serif" font-size="13" lengthAdjust="spacing" textLength="78.0762" x="1511" y="558.7938">SQL queries</text></g><!--link be to doc_hash--><g class="link" data-entity-1="ent0006" data-entity-2="ent0009" data-link-type="dependency" data-source-line="45" id="lnk24"><path d="M1781,443.5769 C1781,470.5969 1781,507.2869 1781,530.7069" fill="none" id="be-to-doc_hash" style="stroke:#181818;stroke-width:1;"/><polygon fill="#181818" points="1781,535.7069,1785,526.7069,1781,530.7069,1777,526.7069,1781,535.7069" style="stroke:#181818;stroke-width:1;stroke-linejoin:miter;stroke-miterlimit:10;"/></g><!--link be to audit_verify--><g class="link" data-entity-1="ent0006" data-entity-2="ent0010" data-link-type="dependency" data-source-line="46" id="lnk25"><path d="M1848.8,443.5769 C1919.71,470.5569 2024.4165,510.3996 2086.0265,533.8296" fill="none" id="be-to-audit_verify" style="stroke:#181818;stroke-width:1;"/><polygon fill="#181818" points="2090.7,535.6069,2083.7096,528.669,2086.0265,533.8296,2080.8659,536.1465,2090.7,535.6069" style="stroke:#181818;stroke-width:1;stroke-linejoin:miter;stroke-miterlimit:10;"/></g><!--link doc_hash to db--><g class="link" data-entity-1="ent0009" data-entity-2="ent0007" data-link-type="dependency" data-source-line="48" id="lnk26"><path d="M1781,572.7569 C1781,592.4969 1781,620.1669 1781,645.8969" fill="none" id="doc_hash-to-db" style="stroke:#181818;stroke-width:1;"/><polygon fill="#181818" points="1781,650.8969,1785,641.8969,1781,645.8969,1777,641.8969,1781,650.8969" style="stroke:#181818;stroke-width:1;stroke-linejoin:miter;stroke-miterlimit:10;"/><text fill="#000000" font-family="sans-serif" font-size="13" lengthAdjust="spacing" textLength="135.6558" x="1782" y="617.4438">store hash metadata</text></g><!--link audit_verify to db--><g class="link" data-entity-1="ent0010" data-entity-2="ent0007" data-link-type="dependency" data-source-line="50" id="lnk27"><path d="M2090.46,572.7569 C2038.06,592.4969 1956.0092,623.4049 1887.6792,649.1349" fill="none" id="audit_verify-to-db" style="stroke:#181818;stroke-width:1;"/><polygon fill="#181818" points="1883,650.8969,1892.8322,651.4687,1887.6792,649.1349,1890.0131,643.9819,1883,650.8969" style="stroke:#181818;stroke-width:1;stroke-linejoin:miter;stroke-miterlimit:10;"/><text fill="#000000" font-family="sans-serif" font-size="13" lengthAdjust="spacing" textLength="179.937" x="2002.36" y="617.4438">read audit events + hashes</text></g><!--link pipeline to sca--><g class="link" data-entity-1="ent0012" data-entity-2="ent0014" data-link-type="dependency" data-source-line="52" id="lnk28"><path d="M443.89,132.3069 C382.73,149.6269 304.06,175.1069 238,206.8969 C213.28,218.7869 191.5654,232.7901 171.8554,246.8001" fill="none" id="pipeline-to-sca" style="stroke:#181818;stroke-width:1;"/><polygon fill="#181818" points="167.78,249.6969,177.4331,247.7429,171.8554,246.8001,172.7982,241.2224,167.78,249.6969" style="stroke:#181818;stroke-width:1;stroke-linejoin:miter;stroke-miterlimit:10;"/></g><!--link pipeline to sast--><g class="link" data-entity-1="ent0012" data-entity-2="ent0015" data-link-type="dependency" data-source-line="53" id="lnk29"><path d="M512.35,132.1969 C471.82,163.9769 407.0445,214.7715 366.5445,246.5315" fill="none" id="pipeline-to-sast" style="stroke:#181818;stroke-width:1;"/><polygon fill="#181818" points="362.61,249.6169,372.1604,247.2107,366.5445,246.5315,367.2237,240.9155,362.61,249.6169" style="stroke:#181818;stroke-width:1;stroke-linejoin:miter;stroke-miterlimit:10;"/></g><!--link pipeline to secrets--><g class="link" data-entity-1="ent0012" data-entity-2="ent0016" data-link-type="dependency" data-source-line="54" id="lnk30"><path d="M535.58,132.1969 C523.9,163.9769 505.8058,213.1642 494.1258,244.9242" fill="none" id="pipeline-to-secrets" style="stroke:#181818;stroke-width:1;"/><polygon fill="#181818" points="492.4,249.6169,499.2606,242.5506,494.1258,244.9242,491.7522,239.7893,492.4,249.6169" style="stroke:#181818;stroke-width:1;stroke-linejoin:miter;stroke-miterlimit:10;"/></g><!--link pipeline to iac--><g class="link" data-entity-1="ent0012" data-entity-2="ent0017" data-link-type="dependency" data-source-line="55" id="lnk31"><path d="M554.57,132.1969 C566.44,163.9769 584.8296,213.1733 596.6996,244.9333" fill="none" id="pipeline-to-iac" style="stroke:#181818;stroke-width:1;"/><polygon fill="#181818" points="598.45,249.6169,599.0461,239.7861,596.6996,244.9333,591.5523,242.5868,598.45,249.6169" style="stroke:#181818;stroke-width:1;stroke-linejoin:miter;stroke-miterlimit:10;"/></g><!--link pipeline to trivy--><g class="link" data-entity-1="ent0012" data-entity-2="ent0018" data-link-type="dependency" data-source-line="56" id="lnk32"><path d="M580.34,132.3869 C623.81,164.1169 693.1511,214.7294 736.6311,246.4594" fill="none" id="pipeline-to-trivy" style="stroke:#181818;stroke-width:1;"/><polygon fill="#181818" points="740.67,249.4069,735.7579,240.8704,736.6311,246.4594,731.042,247.3326,740.67,249.4069" style="stroke:#181818;stroke-width:1;stroke-linejoin:miter;stroke-miterlimit:10;"/></g><!--link pipeline to dast--><g class="link" data-entity-1="ent0012" data-entity-2="ent0019" data-link-type="dependency" data-source-line="57" id="lnk33"><path d="M654.51,131.1969 C721.34,148.1869 807.55,173.7069 880,206.8969 C905.45,218.5469 927.8719,232.5967 948.1519,246.6667" fill="none" id="pipeline-to-dast" style="stroke:#181818;stroke-width:1;"/><polygon fill="#181818" points="952.26,249.5169,947.1455,241.1001,948.1519,246.6667,942.5853,247.6731,952.26,249.5169" style="stroke:#181818;stroke-width:1;stroke-linejoin:miter;stroke-miterlimit:10;"/></g><!--link sca to artifacts--><g class="link" data-entity-1="ent0014" data-entity-2="ent0020" data-link-type="dependency" data-source-line="59" id="lnk34"><path d="M182.85,302.8869 C199.97,311.2069 219.54,319.9569 238,326.4869 C325.54,357.4269 423.5402,380.301 498.5702,395.551" fill="none" id="sca-to-artifacts" style="stroke:#181818;stroke-width:1;"/><polygon fill="#181818" points="503.47,396.5469,495.4471,390.8344,498.5702,395.551,493.8536,398.6741,503.47,396.5469" style="stroke:#181818;stroke-width:1;stroke-linejoin:miter;stroke-miterlimit:10;"/></g><!--link sast to artifacts--><g class="link" data-entity-1="ent0015" data-entity-2="ent0020" data-link-type="dependency" data-source-line="60" id="lnk35"><path d="M377.07,302.9269 C391.42,310.6369 407.3,319.0169 422,326.4869 C458.57,345.0469 495.1229,362.7332 529.3429,378.9732" fill="none" id="sast-to-artifacts" style="stroke:#181818;stroke-width:1;"/><polygon fill="#181818" points="533.86,381.1169,527.4441,373.6445,529.3429,378.9732,524.0142,380.8719,533.86,381.1169" style="stroke:#181818;stroke-width:1;stroke-linejoin:miter;stroke-miterlimit:10;"/></g><!--link secrets to artifacts--><g class="link" data-entity-1="ent0016" data-entity-2="ent0020" data-link-type="dependency" data-source-line="61" id="lnk36"><path d="M506.22,302.9369 C526.06,324.9269 551.4305,374.0646 573.3105,398.3146" fill="none" id="secrets-to-artifacts" style="stroke:#181818;stroke-width:1;"/><polygon fill="#181818" points="576.66,402.0269,573.6008,392.6652,573.3105,398.3146,567.6611,398.0243,576.66,402.0269" style="stroke:#181818;stroke-width:1;stroke-linejoin:miter;stroke-miterlimit:10;"/></g><!--link iac to artifacts--><g class="link" data-entity-1="ent0017" data-entity-2="ent0020" data-link-type="dependency" data-source-line="62" id="lnk37"><path d="M608,302.9369 C608,324.9269 608,372.7769 608,397.0269" fill="none" id="iac-to-artifacts" style="stroke:#181818;stroke-width:1;"/><polygon fill="#181818" points="608,402.0269,612,393.0269,608,397.0269,604,393.0269,608,402.0269" style="stroke:#181818;stroke-width:1;stroke-linejoin:miter;stroke-miterlimit:10;"/></g><!--link trivy to artifacts--><g class="link" data-entity-1="ent0018" data-entity-2="ent0020" data-link-type="dependency" data-source-line="63" id="lnk38"><path d="M744.79,302.9369 C718.13,324.9269 683.3872,374.5954 653.9872,398.8454" fill="none" id="trivy-to-artifacts" style="stroke:#181818;stroke-width:1;"/><polygon fill="#181818" points="650.13,402.0269,659.6182,399.3859,653.9872,398.8454,654.5277,393.2144,650.13,402.0269" style="stroke:#181818;stroke-width:1;stroke-linejoin:miter;stroke-miterlimit:10;"/></g><!--link dast to artifacts--><g class="link" data-entity-1="ent0019" data-entity-2="ent0020" data-link-type="dependency" data-source-line="64" id="lnk39"><path d="M934.18,302.9769 C917.07,310.9369 897.89,319.4569 880,326.4869 C825.53,347.8969 768.3899,387.9977 717.4199,404.0177" fill="none" id="dast-to-artifacts" style="stroke:#181818;stroke-width:1;"/><polygon fill="#181818" points="712.65,405.5169,722.4353,406.6343,717.4199,404.0177,720.0365,399.0023,712.65,405.5169" style="stroke:#181818;stroke-width:1;stroke-linejoin:miter;stroke-miterlimit:10;"/></g><?plantuml-src TLNRRkCs47tNLmpoP6FZDTfYkq0V2YZAPkCYsxYHsmNQ5055ZIqsCgcIbBP64Q0VqI_ib_IGbBssYpwHcZbpEpD3UULRfhAuAN9QceB--UjlMcoxbhUilV3AQCgjR9HdwNlBDBbLcuRkUE1sccNkMUbEMB4bruZQV59wGslHEZxIIBFjZ8QtqkyGoiAHq9kMiqn8RonTBFJ0pgkD25zpohLeTyu_wicFZktqWeIZ7hSiEvZIHL3HEpqeQtJ8z81wOZtGdncHDZLm7xcYAsi-GHCXLRfdBoVUygvhbKpLJi122YgwBdhwvO6HwVmdS40tYETPro6xnVJN05kZ4e1kXFFvSa5NGZudGFXwHGzNUO6ZA1zk4hwA-5fuKGc7u4lZ_CPo-SCTR489xf8aD3YyWY-FIsra7yfqj6KlWktbenPzhJoX4pf06k4QaerGEcLVLo7CKP4bozuglvivravvDJ2jUor3qIvQE9OGn99Hp_KOyX0HHPIt-UpBDr-dM8tGTOk6nwAGu5EG9jiyP3Qtt1cB1F-8nwjaDR1Lwv7hQ1chU8hY7QnVpbfppGCIl-ySJTuhVoSgAXRpuZhLA5Lgq59rZ5IOd1SRTk1n4Ar2qZpt6ArvrQksdhkHWDI6RhJv7vPeK4vLgWrN9uNMw4jYQVpOyrGMEUB1sonMSacwswQYKXpWHs1Uhe2y0cq1Ll8MNUz648PdHB6qQ3c0xyDcYcSt8f8yWHQYc1T6hzK6kA9X-Mo615D29WZK7hE0BL5RS1BJ1dXbrJ0IuCDrx7LAxVvZNYxfvtn9OJ83EGbPf-nU0bLhqzPmUb4iI5YlrjWCj8O7LREMF7tKtvNttsEBRrSVxd1ykAOq1ecyWqdeyhYBD9jzYoMYRs2pMjBapHTllvfc40Hv5UGFxyeLXMsIecrTLYLLNK65hQ7VUmmFk-oWsC_Y-7qoOTbU-zc7mxl3QJhtiuwtwSZeCzIogEbuxyQn3j7t0nNHeUkdWi3XgMJiw8amzEz4aBfq8ehjo10XLNUWD8Gu5wKOPr84EPF4A6Uo-h_kCctm1bhy0JoPzP4YFuo209MTDNKlkQPgXsqztgJVJEKoB028ZDDPOvuiUV2d7Es7w7MsQdWNFI7Uw2s-pP93dF7rSAyplBC1mjc_?></g></svg>